<svg height="512pt" viewBox="0 0 512 512" width="512pt" xmlns="http://www.w3.org/2000/svg"><path d="m331.761719 429.003906c7.726562 7.886719 7.601562 20.550782-.289063 28.28125-36.007812 35.28125-84.472656 54.714844-136.472656 54.714844-52.117188 0-101.066406-20.085938-137.828125-56.558594-36.867187-36.578125-57.171875-85.386718-57.171875-137.441406v-5.359375c0-67.566406 56.460938-132.359375 106.273438-189.523437 33.789062-38.773438 68.726562-78.871094 68.726562-103.117188 0-11.046875 8.953125-20 20-20s20 8.953125 20 20c0 25.835938 35.4375 66.144531 69.703125 105.128906 6.234375 7.089844 12.679687 14.421875 19.050781 21.808594 7.214844 8.363281 6.28125 20.992188-2.078125 28.207031-8.363281 7.214844-20.992187 6.285157-28.210937-2.082031-6.246094-7.242188-12.628906-14.503906-18.800782-21.523438-23.480468-26.710937-45.199218-51.417968-60.011718-75.046874-14.574219 22.816406-35.570313 46.90625-58.222656 72.902343-45.199219 51.871094-96.429688 110.664063-96.429688 163.246094v5.359375c0 84.914062 69.53125 154 155 154 41.46875 0 79.992188-15.371094 108.476562-43.285156 7.890626-7.730469 20.550782-7.601563 28.285157.289062zm160.238281-74.003906c-7.710938 0-18.175781-7.234375-28.710938-19.847656-8.574218-10.265625-21.4375-16.152344-35.289062-16.152344s-26.714844 5.886719-35.289062 16.152344c-10.535157 12.613281-21 19.847656-28.710938 19.847656s-18.175781-7.234375-28.710938-19.847656c-8.574218-10.265625-21.4375-16.152344-35.289062-16.152344s-26.714844 5.886719-35.289062 16.152344c-10.535157 12.613281-21 19.847656-28.710938 19.847656s-18.175781-7.234375-28.710938-19.847656c-8.574218-10.265625-21.4375-16.152344-35.289062-16.152344s-26.714844 5.886719-35.289062 16.152344c-10.535157 12.613281-21 19.847656-28.710938 19.847656-11.046875 0-20 8.953125-20 20s8.953125 20 20 20c20.464844 0 40.453125-11.507812 59.410156-34.207031.941406-1.121094 2.65625-1.792969 4.589844-1.792969s3.648438.671875 4.589844 1.796875c18.957031 22.695313 38.945312 34.203125 59.410156 34.203125s40.453125-11.507812 59.410156-34.207031c.941406-1.121094 2.65625-1.792969 4.589844-1.792969s3.648438.671875 4.589844 1.796875c18.957031 22.695313 38.945312 34.203125 59.410156 34.203125s40.453125-11.507812 59.410156-34.207031c.941406-1.121094 2.65625-1.792969 4.589844-1.792969s3.648438.671875 4.589844 1.796875c18.957031 22.695313 38.945312 34.203125 59.410156 34.203125 11.046875 0 20-8.953125 20-20s-8.953125-20-20-20zm-227.289062-119.847656c-10.535157 12.613281-21 19.847656-28.710938 19.847656-11.046875 0-20 8.953125-20 20s8.953125 20 20 20c20.464844 0 40.453125-11.507812 59.410156-34.207031.941406-1.121094 2.65625-1.792969 4.589844-1.792969s3.648438.671875 4.589844 1.796875c18.957031 22.695313 38.945312 34.203125 59.410156 34.203125s40.453125-11.507812 59.410156-34.207031c.941406-1.121094 2.65625-1.792969 4.589844-1.792969s3.648438.671875 4.589844 1.796875c18.957031 22.695313 38.945312 34.203125 59.410156 34.203125 11.046875 0 20-8.953125 20-20s-8.953125-20-20-20c-7.710938 0-18.175781-7.234375-28.710938-19.847656-8.574218-10.265625-21.4375-16.152344-35.289062-16.152344s-26.714844 5.886719-35.289062 16.152344c-10.535157 12.613281-21 19.847656-28.710938 19.847656s-18.175781-7.234375-28.710938-19.847656c-8.574218-10.265625-21.4375-16.152344-35.289062-16.152344s-26.714844 5.886719-35.289062 16.152344zm0 0"/></svg>